name rise35.5848peak51.9257fall54.8793.mot
datacolumns 19
datarows 27
range 5.46497300000000 5.50831900000000
endheader
time	ground_force1_vx	ground_force1_vy	ground_force1_vz	ground_force1_px	ground_force1_py	ground_force1_pz	ground_force2_vx	ground_force2_vy	ground_force2_vz	ground_force2_px	ground_force2_py	ground_force2_pz	ground_torque1_x	ground_torque1_y	ground_torque1_z	ground_torque2_x	ground_torque2_y	ground_torque2_z	
5.46497300000000	20.54985600000000	718.53312500000004	46.67641100000000	0.24771500000000	0.00000000000000	0.11894100000000	0.00000000000000	0.00000000000000	0.00000000000000	0.00000000000000	0.00000000000000	0.00000000000000	0.00000000000000	19.17325800000000	0.00000000000000	0.00000000000000	0.00000000000000	0.00000000000000	
5.46664200000000	20.14518500000000	719.45733600000005	46.68268500000000	0.24680800000000	0.00000000000000	0.11889400000000	0.00000000000000	0.00000000000000	0.00000000000000	0.00000000000000	0.00000000000000	0.00000000000000	0.00000000000000	19.22164900000000	0.00000000000000	0.00000000000000	0.00000000000000	0.00000000000000	
5.46830700000000	19.73259900000000	720.39011400000004	46.69170300000000	0.24589300000000	0.00000000000000	0.11884800000000	0.00000000000000	0.00000000000000	0.00000000000000	0.00000000000000	0.00000000000000	0.00000000000000	0.00000000000000	19.27319200000000	0.00000000000000	0.00000000000000	0.00000000000000	0.00000000000000	
5.46997100000000	19.31198400000000	721.33038799999997	46.70333300000000	0.24497100000000	0.00000000000000	0.11880200000000	0.00000000000000	0.00000000000000	0.00000000000000	0.00000000000000	0.00000000000000	0.00000000000000	0.00000000000000	19.32778900000000	0.00000000000000	0.00000000000000	0.00000000000000	0.00000000000000	
5.47164600000000	18.88324300000000	722.27717199999995	46.71744200000000	0.24404100000000	0.00000000000000	0.11875700000000	0.00000000000000	0.00000000000000	0.00000000000000	0.00000000000000	0.00000000000000	0.00000000000000	0.00000000000000	19.38534100000000	0.00000000000000	0.00000000000000	0.00000000000000	0.00000000000000	
5.47330400000000	18.44630200000000	723.22956199999999	46.73390700000000	0.24310100000000	0.00000000000000	0.11871200000000	0.00000000000000	0.00000000000000	0.00000000000000	0.00000000000000	0.00000000000000	0.00000000000000	0.00000000000000	19.44575000000000	0.00000000000000	0.00000000000000	0.00000000000000	0.00000000000000	
5.47498600000000	18.00110600000000	724.18673999999999	46.75260500000000	0.24215300000000	0.00000000000000	0.11866800000000	0.00000000000000	0.00000000000000	0.00000000000000	0.00000000000000	0.00000000000000	0.00000000000000	0.00000000000000	19.50892100000000	0.00000000000000	0.00000000000000	0.00000000000000	0.00000000000000	
5.47664300000000	17.54762200000000	725.14797199999998	46.77342200000000	0.24119400000000	0.00000000000000	0.11862400000000	0.00000000000000	0.00000000000000	0.00000000000000	0.00000000000000	0.00000000000000	0.00000000000000	0.00000000000000	19.57475700000000	0.00000000000000	0.00000000000000	0.00000000000000	0.00000000000000	
5.47830700000000	17.08584300000000	726.11261000000002	46.79624700000000	0.24022600000000	0.00000000000000	0.11858100000000	0.00000000000000	0.00000000000000	0.00000000000000	0.00000000000000	0.00000000000000	0.00000000000000	0.00000000000000	19.64316300000000	0.00000000000000	0.00000000000000	0.00000000000000	0.00000000000000	
5.47997600000000	16.61578100000000	727.08008600000005	46.82097800000000	0.23924800000000	0.00000000000000	0.11853900000000	0.00000000000000	0.00000000000000	0.00000000000000	0.00000000000000	0.00000000000000	0.00000000000000	0.00000000000000	19.71404400000000	0.00000000000000	0.00000000000000	0.00000000000000	0.00000000000000	
5.48164300000000	16.13747600000000	728.04991900000005	46.84751800000000	0.23825900000000	0.00000000000000	0.11849700000000	0.00000000000000	0.00000000000000	0.00000000000000	0.00000000000000	0.00000000000000	0.00000000000000	0.00000000000000	19.78730700000000	0.00000000000000	0.00000000000000	0.00000000000000	0.00000000000000	
5.48330800000000	15.65099100000000	729.02170599999999	46.87577700000000	0.23726000000000	0.00000000000000	0.11845600000000	0.00000000000000	0.00000000000000	0.00000000000000	0.00000000000000	0.00000000000000	0.00000000000000	0.00000000000000	19.86285900000000	0.00000000000000	0.00000000000000	0.00000000000000	0.00000000000000	
5.48497800000000	15.15641500000000	729.99512400000003	46.90567300000000	0.23625000000000	0.00000000000000	0.11841600000000	0.00000000000000	0.00000000000000	0.00000000000000	0.00000000000000	0.00000000000000	0.00000000000000	0.00000000000000	19.94060800000000	0.00000000000000	0.00000000000000	0.00000000000000	0.00000000000000	
5.48664000000000	14.65386100000000	730.96992899999998	46.93713400000000	0.23522900000000	0.00000000000000	0.11837600000000	0.00000000000000	0.00000000000000	0.00000000000000	0.00000000000000	0.00000000000000	0.00000000000000	0.00000000000000	20.02046100000000	0.00000000000000	0.00000000000000	0.00000000000000	0.00000000000000	
5.48830800000000	14.14346800000000	731.94595000000004	46.97009400000000	0.23419900000000	0.00000000000000	0.11833700000000	0.00000000000000	0.00000000000000	0.00000000000000	0.00000000000000	0.00000000000000	0.00000000000000	0.00000000000000	20.10232900000000	0.00000000000000	0.00000000000000	0.00000000000000	0.00000000000000	
5.48997300000000	13.62540200000000	732.92309000000000	47.00449700000000	0.23315800000000	0.00000000000000	0.11829800000000	0.00000000000000	0.00000000000000	0.00000000000000	0.00000000000000	0.00000000000000	0.00000000000000	0.00000000000000	20.18612000000000	0.00000000000000	0.00000000000000	0.00000000000000	0.00000000000000	
5.49163900000000	13.09985400000000	733.90131799999995	47.04029500000000	0.23210700000000	0.00000000000000	0.11826000000000	0.00000000000000	0.00000000000000	0.00000000000000	0.00000000000000	0.00000000000000	0.00000000000000	0.00000000000000	20.27174400000000	0.00000000000000	0.00000000000000	0.00000000000000	0.00000000000000	
5.49333000000000	12.56703700000000	734.88067100000001	47.07745300000000	0.23104600000000	0.00000000000000	0.11822200000000	0.00000000000000	0.00000000000000	0.00000000000000	0.00000000000000	0.00000000000000	0.00000000000000	0.00000000000000	20.35911400000000	0.00000000000000	0.00000000000000	0.00000000000000	0.00000000000000	
5.49497200000000	12.02719400000000	735.86124700000005	47.11594200000000	0.22997600000000	0.00000000000000	0.11818500000000	0.00000000000000	0.00000000000000	0.00000000000000	0.00000000000000	0.00000000000000	0.00000000000000	0.00000000000000	20.44813900000000	0.00000000000000	0.00000000000000	0.00000000000000	0.00000000000000	
5.49664600000000	11.48058800000000	736.84320300000002	47.15574600000000	0.22889700000000	0.00000000000000	0.11814800000000	0.00000000000000	0.00000000000000	0.00000000000000	0.00000000000000	0.00000000000000	0.00000000000000	0.00000000000000	20.53873200000000	0.00000000000000	0.00000000000000	0.00000000000000	0.00000000000000	
5.49832000000000	10.92750900000000	737.82674899999995	47.19685900000000	0.22781000000000	0.00000000000000	0.11811200000000	0.00000000000000	0.00000000000000	0.00000000000000	0.00000000000000	0.00000000000000	0.00000000000000	0.00000000000000	20.63080500000000	0.00000000000000	0.00000000000000	0.00000000000000	0.00000000000000	
5.49997800000000	10.36826700000000	738.81214599999998	47.23928300000000	0.22671400000000	0.00000000000000	0.11807600000000	0.00000000000000	0.00000000000000	0.00000000000000	0.00000000000000	0.00000000000000	0.00000000000000	0.00000000000000	20.72427100000000	0.00000000000000	0.00000000000000	0.00000000000000	0.00000000000000	
5.50164300000000	9.80319800000000	739.79969900000003	47.28303500000000	0.22561200000000	0.00000000000000	0.11804100000000	0.00000000000000	0.00000000000000	0.00000000000000	0.00000000000000	0.00000000000000	0.00000000000000	0.00000000000000	20.81904200000000	0.00000000000000	0.00000000000000	0.00000000000000	0.00000000000000	
5.50330700000000	9.23265500000000	740.78975400000002	47.32814000000000	0.22450300000000	0.00000000000000	0.11800500000000	0.00000000000000	0.00000000000000	0.00000000000000	0.00000000000000	0.00000000000000	0.00000000000000	0.00000000000000	20.91503100000000	0.00000000000000	0.00000000000000	0.00000000000000	0.00000000000000	
5.50497000000000	8.65701600000000	741.78269299999999	47.37463600000000	0.22338800000000	0.00000000000000	0.11797000000000	0.00000000000000	0.00000000000000	0.00000000000000	0.00000000000000	0.00000000000000	0.00000000000000	0.00000000000000	21.01215100000000	0.00000000000000	0.00000000000000	0.00000000000000	0.00000000000000	
5.50664600000000	8.07667400000000	742.77892699999995	47.42257100000000	0.22226700000000	0.00000000000000	0.11793500000000	0.00000000000000	0.00000000000000	0.00000000000000	0.00000000000000	0.00000000000000	0.00000000000000	0.00000000000000	21.11031600000000	0.00000000000000	0.00000000000000	0.00000000000000	0.00000000000000	
5.50831900000000	7.49204200000000	743.77889600000003	47.47200300000000	0.22114300000000	0.00000000000000	0.11790100000000	0.00000000000000	0.00000000000000	0.00000000000000	0.00000000000000	0.00000000000000	0.00000000000000	0.00000000000000	21.20943900000000	0.00000000000000	0.00000000000000	0.00000000000000	0.00000000000000	
